:SAMPLES-PER-SECOND 24
:FULLY-SPECIFIED
:DEGREES
82
root  2.27634 39.0606 24.8731 11.9847 38.2521 -0.598877
RightUpLeg  -35.1496 -5.57702 -8.81889
RightLeg  37.5961 -7.53296 -6.42585
RightFoot  -5.50418 -0.267899 4.49226
RightToes  -2.08645e-008 3.77894e-005 6.81332e-007
Spine  -0.425409 -2.62633 -10.4625
Spine1  2.36272 -3.82684 7.95522
HEad  -34.3342 -10.1784 14.4798
LeftShoulder1  7.02629 -12.9613 -36.6149
LeftArm  12.938 41.849 -14.3091
LeftForeArm  165.256 -66.3433 -157.15
LeftHand  -0.228344 -3.80453 3.14351
RightShoulder  4.11365 6.68735 34.4725
RightArm  9.04465 -32.1205 32.7071
RightForeArm  139.68 77.9354 128.156
RightHand  0.0936098 10.4219 0.272405
LeftUpLeg  -0.219779 4.06703 4.938
LeftLeg  4.00326 9.79136 -0.0976448
LeftFoot  -17.0634 -0.597848 -13.9332
LeftToes  1.24767e-006 1.47042e-008 1.32732e-009
83
root  2.28338 38.7766 25.1883 12.5514 33.7628 0.708374
RightUpLeg  -36.8034 -4.50169 -10.374
RightLeg  30.0514 -9.89188 -6.35639
RightFoot  -5.17732 -0.200629 3.07069
RightToes  -2.08645e-008 3.77894e-005 6.81332e-007
Spine  -0.472104 -1.85756 -11.1823
Spine1  3.97246 -2.75315 6.85974
HEad  -37.2207 -9.3173 14.4205
LeftShoulder1  7.58098 -13.5019 -38.4518
LeftArm  13.8122 37.8453 -11.3061
LeftForeArm  161.904 -68.5834 -154.201
LeftHand  -0.33176 -3.35262 4.6547
RightShoulder  4.20281 6.80262 34.8806
RightArm  8.92802 -28.9254 31.9395
RightForeArm  127.464 79.6124 114.357
RightHand  -0.0116704 10.3527 -0.499548
LeftUpLeg  0.506829 4.01308 3.29967
LeftLeg  5.42616 13.9748 -0.0494197
LeftFoot  -17.9888 -0.688824 -13.6554
LeftToes  1.24767e-006 1.47042e-008 1.32732e-009
84
root  2.47685 38.495 25.7402 11.9762 29.1422 1.02557
RightUpLeg  -36.4183 -2.96329 -11.252
RightLeg  19.2225 -9.59453 -3.93364
RightFoot  -3.54666 -0.263047 3.48807
RightToes  -2.08645e-008 3.77894e-005 6.81332e-007
Spine  -0.261113 -1.62199 -9.28585
Spine1  4.28332 -1.91529 4.37957
HEad  -37.4613 -8.19464 13.0814
LeftShoulder1  8.02533 -13.8809 -39.9615
LeftArm  12.9567 32.9763 -11.5491
LeftForeArm  158.1 -70.593 -150.92
LeftHand  -0.383463 -2.71009 5.71944
RightShoulder  4.21073 6.84914 34.775
RightArm  9.72895 -26.6959 31.6494
RightForeArm  112.995 80.3733 100.011
RightHand  -0.0776398 9.72503 -1.00526
LeftUpLeg  2.35715 3.9406 2.08742
LeftLeg  6.63638 18.9118 0.703018
LeftFoot  -18.3412 -0.703209 -13.241
LeftToes  1.24767e-006 1.47042e-008 1.32732e-009
85
root  2.75103 38.2155 26.5815 11.4268 26.2489 0.705566
RightUpLeg  -35.7005 -2.72239 -10.7518
RightLeg  9.78548 -8.49583 -2.54491
RightFoot  -2.04691 -0.331592 3.91808
RightToes  -2.08645e-008 3.77894e-005 6.81332e-007
Spine  -0.000976802 -2.46751 -7.77035
Spine1  2.96253 -2.65078 4.32749
HEad  -35.5952 -6.35421 11.169
LeftShoulder1  8.25494 -14.0402 -40.8013
LeftArm  11.3197 28.282 -14.9284
LeftForeArm  157.189 -71.0049 -150.133
LeftHand  -0.416321 -2.20662 6.56362
RightShoulder  4.18518 6.827 34.6169
RightArm  11.7329 -26.1346 30.2324
RightForeArm  114.657 80.167 103.327
RightHand  -0.292925 9.10841 -2.729
LeftUpLeg  4.19613 4.04685 1.86559
LeftLeg  7.66466 21.1133 1.40171
LeftFoot  -19.548 -0.954863 -14.8199
LeftToes  1.24767e-006 1.47042e-008 1.32732e-009
86
root  2.99027 37.8874 27.7403 11.0906 24.6909 0.445068
RightUpLeg  -36.286 -2.31322 -10.1604
RightLeg  6.97173 -8.52725 -2.7878
RightFoot  -3.02116 -0.281003 3.56488
RightToes  -2.08645e-008 3.77894e-005 6.81332e-007
Spine  -0.502294 -4.03262 -8.20462
Spine1  2.19861 -4.63518 7.00074
HEad  -33.7898 -3.94212 9.68124
LeftShoulder1  8.27931 -14.0435 -40.9233
LeftArm  9.12074 22.8972 -19.8239
LeftForeArm  159.025 -70.7039 -150.866
LeftHand  -0.436259 -1.89093 7.14298
RightShoulder  4.16367 6.77544 34.6114
RightArm  13.0124 -26.1265 28.2386
RightForeArm  126.769 79.3677 115.863
RightHand  -0.0883112 9.42031 -1.09047
LeftUpLeg  5.9761 4.3413 2.25906
LeftLeg  9.02136 22.2386 2.23224
LeftFoot  -20.6085 -1.29662 -17.3873
LeftToes  1.24767e-006 1.47042e-008 1.32732e-009
87
root  3.17082 37.5223 29.195 10.3624 23.0953 0.188416
RightUpLeg  -37.2277 -0.314241 -10.113
RightLeg  9.5547 -7.78045 -2.67531
RightFoot  -4.41655 -0.305506 4.54903
RightToes  -2.08645e-008 3.77894e-005 6.81332e-007
Spine  -1.18531 -5.66869 -9.47319
Spine1  2.07674 -6.9413 10.5997
HEad  -32.1741 -1.5016 8.37716
LeftShoulder1  8.33532 -14.0868 -41.1131
LeftArm  6.81774 16.5085 -23.4303
LeftForeArm  160.036 -70.7163 -150.99
LeftHand  -0.463223 -1.69617 7.76644
RightShoulder  4.09347 6.68766 34.2752
RightArm  13.0615 -26.0017 27.4114
RightForeArm  131.546 78.9613 120.278
RightHand  0.0739397 9.74578 0.159741
LeftUpLeg  8.66087 5.14059 3.24371
LeftLeg  10.56 22.6504 3.073
LeftFoot  -20.0602 -1.35975 -19.2439
LeftToes  1.24767e-006 1.47042e-008 1.32732e-009
88
root  3.26383 37.2595 30.8992 9.03406 20.8859 -0.56781
RightUpLeg  -37.8291 3.06015 -9.1941
RightLeg  14.3334 -5.92329 -2.16181
RightFoot  -1.33093 -0.33262 3.82686
RightToes  -2.08645e-008 3.77894e-005 6.81332e-007
Spine  -1.93195 -6.87127 -10.6474
Spine1  2.54397 -9.17973 15.022
HEad  -30.3462 0.730923 6.72592
LeftShoulder1  8.54516 -14.2493 -41.8132
LeftArm  4.62993 10.1019 -24.8479
LeftForeArm  160.316 -71.0894 -150.445
LeftHand  -0.477364 -1.65926 8.03752
RightShoulder  3.99706 6.58663 33.7265
RightArm  12.9226 -25.8954 27.3595
RightForeArm  127.655 79.3567 116.307
RightHand  0.000984758 9.62526 -0.396838
LeftUpLeg  12.3276 7.10554 5.46979
LeftLeg  11.9477 19.6084 3.17369
LeftFoot  -19.5509 -1.61893 -23.8049
LeftToes  1.24767e-006 1.47042e-008 1.32732e-009
89
root  3.28131 37.1761 32.8088 7.36133 17.9386 -1.88287
RightUpLeg  -38.2266 7.11731 -6.90809
RightLeg  20.2407 -4.86968 -2.17472
RightFoot  3.98028 0.099647 -0.46777
RightToes  -2.08645e-008 3.77894e-005 6.81332e-007
Spine  -2.72181 -7.70454 -10.5529
Spine1  3.14652 -11.0554 18.8499
HEad  -28.7084 2.94664 4.36973
LeftShoulder1  8.606 -14.2892 -42.0324
LeftArm  2.31886 5.76309 -25.4794
LeftForeArm  161.707 -71.2593 -150.377
LeftHand  -0.455162 -1.84881 7.48574
RightShoulder  3.95832 6.53771 33.5349
RightArm  13.2881 -25.5841 26.7249
RightForeArm  120.275 79.8946 108.976
RightHand  -0.107708 9.31816 -1.24715
LeftUpLeg  14.2156 10.4023 8.51974
LeftLeg  17.795 17.835 6.04511
LeftFoot  -16.0914 -1.14355 -30.8975
LeftToes  1.24767e-006 1.47042e-008 1.32732e-009
90
root  3.27827 37.1616 34.7609 5.17346 14.4159 -3.12561
RightUpLeg  -37.019 9.82504 -3.52645
RightLeg  26.0317 -3.83494 -2.25651
RightFoot  4.08235 0.553505 -3.91465
RightToes  -2.08645e-008 3.77894e-005 6.81332e-007
Spine  -1.62583 -8.09393 -8.39305
Spine1  1.55773 -11.7114 19.9803
HEad  -27.3006 4.99804 1.59375
LeftShoulder1  8.34343 -14.0631 -41.216
LeftArm  0.546629 4.41168 -26.0745
LeftForeArm  163.128 -70.4579 -151.811
LeftHand  -0.435624 -1.88679 7.13643
RightShoulder  3.98193 6.57386 33.627
RightArm  14.0118 -24.8892 25.9287
RightForeArm  111.496 80.2615 100.429
RightHand  -0.347894 9.25052 -3.14522
LeftUpLeg  10.5971 9.72389 10.1657
LeftLeg  34.1438 19.4413 14.3474
LeftFoot  -1.64046 2.56652 -29.6758
LeftToes  1.24767e-006 1.47042e-008 1.32732e-009
91
root  3.26271 37.0336 36.2349 2.46545 11.3321 -4.46936
RightUpLeg  -34.4164 11.5692 0.0195838
RightLeg  30.4451 -3.22745 -2.28613
RightFoot  0.0844065 0.455126 -4.53785
RightToes  -2.08645e-008 3.77894e-005 6.81332e-007
Spine  1.57083 -7.93949 -4.46493
Spine1  -0.467902 -11.325 19.6149
HEad  -25.8192 5.68547 -0.211947
LeftShoulder1  8.0221 -13.772 -40.2195
LeftArm  0.239156 3.5641 -26.4639
LeftForeArm  164.28 -69.0008 -153.973
LeftHand  -0.421552 -1.70667 7.07339
RightShoulder  4.04077 6.66965 33.8316
RightArm  14.4059 -23.6998 26.015
RightForeArm  101.149 80.3813 90.8084
RightHand  -0.0403902 8.98728 -0.7186
LeftUpLeg  1.18561 7.69262 11.8594
LeftLeg  54.0174 9.63928 14.3999
LeftFoot  12.875 4.2742 -20.1164
LeftToes  1.24767e-006 1.47042e-008 1.32732e-009
92
root  3.20051 37.0978 37.4341 -0.151245 9.05991 -4.47461
RightUpLeg  -30.6183 13.2491 1.92916
RightLeg  32.6088 -3.18896 -2.44635
RightFoot  -2.89729 0.34577 -4.94514
RightToes  -2.08645e-008 3.77894e-005 6.81332e-007
Spine  3.29922 -7.16008 -2.58098
Spine1  0.0147201 -10.3632 18.4992
HEad  -24.4394 4.2048 -0.752057
LeftShoulder1  7.90131 -13.6524 -39.8599
LeftArm  0.52079 1.8237 -26.5996
LeftForeArm  167.373 -67.6754 -155.954
LeftHand  -0.357578 -2.02685 5.79797
RightShoulder  4.1341 6.77449 34.33
RightArm  14.4045 -20.8433 26.9653
RightForeArm  85.2407 80.032 75.0787
RightHand  -0.158023 8.74367 -1.67752
LeftUpLeg  -11.6079 7.77766 12.3725
LeftLeg  73.511 1.4051 6.96413
LeftFoot  11.9216 2.73141 -13.4823
LeftToes  1.24767e-006 1.47042e-008 1.32732e-009
93
root  3.06999 37.6407 38.5503 -2.86707 6.73621 -2.64758
RightUpLeg  -24.6597 14.2604 2.1019
RightLeg  31.2418 -2.40743 -1.82441
RightFoot  -3.62665 0.359132 -5.67628
RightToes  -2.08645e-008 3.77894e-005 6.81332e-007
Spine  3.6237 -5.42865 -3.21261
Spine1  2.00681 -8.52798 15.6395
HEad  -23.4669 1.25707 -1.09597
LeftShoulder1  7.88379 -13.6348 -39.8085
LeftArm  0.684499 1.18115 -26.356
LeftForeArm  171.344 -66.1117 -158.056
LeftHand  -0.26836 -2.80017 4.03036
RightShoulder  4.23945 6.87393 34.9519
RightArm  15.0369 -16.0538 28.2563
RightForeArm  66.4703 78.3679 55.2488
RightHand  -0.26362 8.84272 -2.53664
LeftUpLeg  -25.9449 11.9434 10.7261
LeftLeg  88.9484 -0.445679 5.49331
LeftFoot  4.78589 1.53176 -11.09
LeftToes  1.24767e-006 1.47042e-008 1.32732e-009
94
root  2.93989 38.2185 39.357 -6.92456 4.30673 -0.263062
RightUpLeg  -17.3588 13.7438 1.85507
RightLeg  29.0703 -0.194056 -0.356599
RightFoot  -3.85263 0.348987 -5.72597
RightToes  -2.08645e-008 3.77894e-005 6.81332e-007
Spine  5.97895 -3.25421 -3.62577
Spine1  3.68597 -5.8371 11.452
HEad  -22.6136 -2.37911 -0.965633
LeftShoulder1  7.66399 -13.4341 -39.0926
LeftArm  1.70509 2.39395 -26.0054
LeftForeArm  173.303 -63.8972 -160.26
LeftHand  -0.244039 -2.79198 3.68587
RightShoulder  4.32328 6.98172 35.3252
RightArm  16.8527 -10.6961 29.4199
RightForeArm  53.7224 75.8072 41.785
RightHand  -0.185879 8.96613 -1.89103
LeftUpLeg  -40.5816 17.5892 7.26905
LeftLeg  98.4337 -1.15205 4.77856
LeftFoot  0.27223 1.1269 -11.064
LeftToes  1.24767e-006 1.47042e-008 1.32732e-009
95
root  2.84867 38.8012 39.9997 -12.5767 2.03601 2.69934
RightUpLeg  -8.83803 13.0727 1.12616
RightLeg  27.0025 1.84944 0.793597
RightFoot  -3.13947 0.440932 -6.43411
RightToes  -2.08645e-008 3.77894e-005 6.81332e-007
Spine  10.2332 -0.754871 -4.0056
Spine1  4.92962 -2.57317 6.74137
HEad  -21.2476 -6.68033 0.518267
LeftShoulder1  7.29454 -13.0825 -37.878
LeftArm  3.54143 4.04871 -25.7742
LeftForeArm  174.024 -61.5623 -162.125
LeftHand  -0.263613 -2.28429 4.18929
RightShoulder  4.32892 7.03629 35.1674
RightArm  19.1623 -6.25277 30.0592
RightForeArm  47.3425 73.8711 35.6856
RightHand  -0.177701 9.16544 -1.80882
LeftUpLeg  -53.946 21.3032 2.5955
LeftLeg  102.324 -0.655334 1.45243
LeftFoot  -2.3179 0.926286 -11.5347
LeftToes  1.24767e-006 1.47042e-008 1.32732e-009
96
root  2.88124 39.3718 40.6042 -18.5037 -0.450562 6.13885
RightUpLeg  -1.38156 13.3819 -0.198699
RightLeg  26.643 3.14366 1.48873
RightFoot  -1.52804 0.637602 -7.53359
RightToes  -2.08645e-008 3.77894e-005 6.81332e-007
Spine  14.3241 1.82583 -3.31364
Spine1  6.11022 1.22809 0.820429
HEad  -19.0352 -11.3373 2.56458
LeftShoulder1  6.93653 -12.7232 -36.6869
LeftArm  4.79771 5.57882 -25.3959
LeftForeArm  174.846 -59.2435 -163.736
LeftHand  -0.248941 -2.37834 3.92803
RightShoulder  4.25211 6.99785 34.5938
RightArm  21.3266 -3.08546 30.1668
RightForeArm  43.8478 72.5375 32.4844
RightHand  -0.12425 9.02205 -1.39209
LeftUpLeg  -66.0698 22.9389 -1.89822
LeftLeg  101.84 -0.210517 -0.301957
LeftFoot  -4.88677 0.80044 -13.5864
LeftToes  1.24767e-006 1.47042e-008 1.32732e-009
